# xmcd
# 
# Track frame offsets:
#     183
#     35330
#     77045
#     121793
#     156188
#     207528
#     234415
#     268518
# 
# Disc length: 3901
# 
# Revision: 1
# Processed by: cddbd v1.5.2PL0 Copyright (c) Steve Scherf et al.
# Submitted via: BonkEnc v1.0.8
# 
DISCID=610f3b08
DTITLE=Michael Formanek - Extended Animation
DYEAR=1991
DGENRE=Contemporary Jazz
TTITLE0=Liar's Web
TTITLE1=Watchful Eyes
TTITLE2=Between the Lines
TTITLE3=Quicksand
TTITLE4=Dominoes
TTITLE5=A Walk in the Park with Kafka
TTITLE6=Snalking
TTITLE7=O My Bitter Hen
EXTD=
EXTT0=
EXTT1=
EXTT2=
EXTT3=
EXTT4=
EXTT5=
EXTT6=
EXTT7=
PLAYORDER=
